HIERARCHY
ROOT pelvis
{
  OFFSET 0 100 0
  CHANNELS 6 Xposition Yposition Zposition Zrotation Xrotation Yrotation
  JOINT pelvis_right_femur
  {
    OFFSET -10.78128 -3.44521 -0.5502486
    CHANNELS 3 Zrotation Xrotation Yrotation
    JOINT right_femur_tibia
    {
      OFFSET -0.8047443 -44.0398 -0.1307829
      CHANNELS 3 Zrotation Xrotation Yrotation
      JOINT right_tibia_foot
      {
        OFFSET 3.006224 -47.83518 -5
        CHANNELS 3 Zrotation Xrotation Yrotation
        End Site
        {
          OFFSET 0 -5 15
        }
      }
    }
  }
  JOINT pelvis_left_femur
  {
    OFFSET 10.78128 -3.44521 -0.5502486
    CHANNELS 3 Zrotation Xrotation Yrotation
    JOINT left_femur_tibia
    {
      OFFSET 0.8047443 -44.0398 -0.1307829
      CHANNELS 3 Zrotation Xrotation Yrotation
      JOINT left_tibia_foot
      {
        OFFSET -4.370144 -48.10324 -4.275266
        CHANNELS 3 Zrotation Xrotation Yrotation
        End Site
        {
          OFFSET 0 -5 15
        }
      }
    }
  }
  JOINT pelvis_spine1
  {
    OFFSET 0 6.468898 -3.129235
    CHANNELS 3 Zrotation Xrotation Yrotation
    JOINT spine1
    {
      OFFSET 0 23.15396 4.99043
      CHANNELS 3 Zrotation Xrotation Yrotation
      JOINT spine2
      {
        OFFSET 0 20.79997 -5.064912
        CHANNELS 3 Zrotation Xrotation Yrotation
        JOINT neck
        {
          OFFSET 0 14.38658 9.616178
          CHANNELS 3 Zrotation Xrotation Yrotation
          End Site
          {
            OFFSET 0 20 0
          }
        }
      }
      JOINT right_manubrium
      {
        OFFSET -5.722621 16.35077 3.967754
        CHANNELS 3 Zrotation Xrotation Yrotation
        JOINT right_clavicle
        {
          OFFSET -13.16364 1.694482 -4.693211
          CHANNELS 3 Zrotation Xrotation Yrotation
          JOINT right_humerus
          {
            OFFSET -28.5034 -0.3100689 -2.792744
            CHANNELS 3 Zrotation Xrotation Yrotation
            JOINT right_radius
            {
              OFFSET -25.15693 0.02248979 -1.271978
              CHANNELS 3 Zrotation Xrotation Yrotation
              End Site
              {
                OFFSET -15 0 0
              }
            }
          }
        }
      }
      JOINT left_manubrium
      {
        OFFSET 5.722621 16.35077 3.967754
        CHANNELS 3 Zrotation Xrotation Yrotation
        JOINT left_clavicle
        {
          OFFSET 13.16364 1.694482 -4.693211
          CHANNELS 3 Zrotation Xrotation Yrotation
          JOINT left_humerus
          {
            OFFSET 29.39168 -1.063119 -2.237045
            CHANNELS 3 Zrotation Xrotation Yrotation
            JOINT left_radius
            {
              OFFSET 24.59957 -0.9528479 0.9047498
              CHANNELS 3 Zrotation Xrotation Yrotation
              End Site
              {
                OFFSET 15 -0 -0
              }
            }
          }
        }
      }
    }
  }
}
MOTION
Frames: 9
Frame Time: 0.0416666666667
-1255.973 75.22376 2291.927 -3.62937 3.183558 -91.90418 12.19274 -0.3936018 1.406399 -0 5.602707 -0 -13.53883 7.922233 2.758065 4.671231 -14.72765 2.282677 -0 33.91378 -0 11.46506 3.107137 5.581655 5.048212 -11.23484 11.05801 6.165212 27.69135 -14.90218 -1.529834 14.92285 0.1845743 -3.071266 -31.79299 0.1917419 -5.006285 -43.79117 18.11268 99.27206 -6.799383 -24.82326 -0 0 23.02964 -22.70194 13.96752 18.79564 -4.693897 -34.22712 -16.4064 -95.49841 9.949856 47.84278 0 0 -33.20051 8.373211 12.39536 10.19007
-1261.973 75.28045 2292.708 -3.616865 3.197762 -92.12885 12.19274 -0.3936018 1.406399 -0 5.602707 -0 -13.53883 7.922233 2.758065 4.671231 -14.72765 2.282677 -0 33.91378 -0 11.46506 3.107137 5.581655 5.048212 -11.23484 11.05801 6.165212 27.69135 -14.90218 -1.529834 14.92285 0.1845743 -3.071266 -31.79299 0.1917419 -5.006285 -43.79117 18.11268 99.27206 -6.799383 -24.82326 -0 0 23.02964 -22.70194 13.96752 18.79564 -4.693897 -34.22712 -16.4064 -95.49841 9.949856 47.84278 0 0 -33.20051 8.373211 12.39536 10.19007
-1267.977 75.33714 2293.466 -3.604304 3.211917 -92.35354 12.19274 -0.3936018 1.406399 -0 5.602707 -0 -13.53883 7.922233 2.758065 4.671231 -14.72765 2.282677 -0 33.91378 -0 11.46506 3.107137 5.581655 5.048212 -11.23484 11.05801 6.165212 27.69135 -14.90218 -1.529834 14.92285 0.1845743 -3.071266 -31.79299 0.1917419 -5.006285 -43.79117 18.11268 99.27206 -6.799383 -24.82326 -0 0 23.02964 -22.70194 13.96752 18.79564 -4.693897 -34.22712 -16.4064 -95.49841 9.949856 47.84278 0 0 -33.20051 8.373211 12.39536 10.19007
-1273.983 75.39383 2294.2 -3.591687 3.226023 -92.57822 12.19274 -0.3936018 1.406399 -0 5.602707 -0 -13.53883 7.922233 2.758065 4.671231 -14.72765 2.282677 -0 33.91378 -0 11.46506 3.107137 5.581655 5.048212 -11.23484 11.05801 6.165212 27.69135 -14.90218 -1.529834 14.92285 0.1845743 -3.071266 -31.79299 0.1917419 -5.006285 -43.79117 18.11268 99.27206 -6.799383 -24.82326 -0 0 23.02964 -22.70194 13.96752 18.79564 -4.693897 -34.22712 -16.4064 -95.49841 9.949856 47.84278 0 0 -33.20051 8.373211 12.39536 10.19007
-1279.992 75.45052 2294.91 -3.579015 3.24008 -92.80292 12.19274 -0.3936018 1.406399 -0 5.602707 -0 -13.53883 7.922233 2.758065 4.671231 -14.72765 2.282677 -0 33.91378 -0 11.46506 3.107137 5.581655 5.048212 -11.23484 11.05801 6.165212 27.69135 -14.90218 -1.529834 14.92285 0.1845743 -3.071266 -31.79299 0.1917419 -5.006285 -43.79117 18.11268 99.27206 -6.799383 -24.82326 -0 0 23.02964 -22.70194 13.96752 18.79564 -4.693897 -34.22712 -16.4064 -95.49841 9.949856 47.84278 0 0 -33.20051 8.373211 12.39536 10.19007
-1286.004 75.50721 2295.597 -3.566287 3.254087 -93.02762 12.19274 -0.3936018 1.406399 -0 5.602707 -0 -13.53883 7.922233 2.758065 4.671231 -14.72765 2.282677 -0 33.91378 -0 11.46506 3.107137 5.581655 5.048212 -11.23484 11.05801 6.165212 27.69135 -14.90218 -1.529834 14.92285 0.1845743 -3.071266 -31.79299 0.1917419 -5.006285 -43.79117 18.11268 99.27206 -6.799383 -24.82326 -0 0 23.02964 -22.70194 13.96752 18.79564 -4.693897 -34.22712 -16.4064 -95.49841 9.949856 47.84278 0 0 -33.20051 8.373211 12.39536 10.19007
-1292.019 75.56389 2296.26 -3.553505 3.268043 -93.25233 12.19274 -0.3936018 1.406399 -0 5.602707 -0 -13.53883 7.922233 2.758065 4.671231 -14.72765 2.282677 -0 33.91378 -0 11.46506 3.107137 5.581655 5.048212 -11.23484 11.05801 6.165212 27.69135 -14.90218 -1.529834 14.92285 0.1845743 -3.071266 -31.79299 0.1917419 -5.006285 -43.79117 18.11268 99.27206 -6.799383 -24.82326 -0 0 23.02964 -22.70194 13.96752 18.79564 -4.693897 -34.22712 -16.4064 -95.49841 9.949856 47.84278 0 0 -33.20051 8.373211 12.39536 10.19007
-1298.036 75.62058 2296.899 -3.540667 3.28195 -93.47704 12.19274 -0.3936018 1.406399 -0 5.602707 -0 -13.53883 7.922233 2.758065 4.671231 -14.72765 2.282677 -0 33.91378 -0 11.46506 3.107137 5.581655 5.048212 -11.23484 11.05801 6.165212 27.69135 -14.90218 -1.529834 14.92285 0.1845743 -3.071266 -31.79299 0.1917419 -5.006285 -43.79117 18.11268 99.27206 -6.799383 -24.82326 -0 0 23.02964 -22.70194 13.96752 18.79564 -4.693897 -34.22712 -16.4064 -95.49841 9.949856 47.84278 0 0 -33.20051 8.373211 12.39536 10.19007
-1304.056 75.67727 2297.515 -3.527775 3.295806 -93.70176 12.19274 -0.3936018 1.406399 -0 5.602707 -0 -13.53883 7.922233 2.758065 4.671231 -14.72765 2.282677 -0 33.91378 -0 11.46506 3.107137 5.581655 5.048212 -11.23484 11.05801 6.165212 27.69135 -14.90218 -1.529834 14.92285 0.1845743 -3.071266 -31.79299 0.1917419 -5.006285 -43.79117 18.11268 99.27206 -6.799383 -24.82326 -0 0 23.02964 -22.70194 13.96752 18.79564 -4.693897 -34.22712 -16.4064 -95.49841 9.949856 47.84278 0 0 -33.20051 8.373211 12.39536 10.19007
